<?xml version="1.0" standalone="no"?>
<!DOCTYPE svg PUBLIC "-//W3C//DTD SVG 20010904//EN"
 "http://www.w3.org/TR/2001/REC-SVG-20010904/DTD/svg10.dtd">
<svg version="1.0" xmlns="http://www.w3.org/2000/svg"
 width="16.000000pt" height="16.000000pt" viewBox="0 0 16.000000 16.000000"
 preserveAspectRatio="xMidYMid meet">
<metadata>
Created by potrace 1.11, written by Peter Selinger 2001-2013
</metadata>
<g transform="translate(0.000000,16.000000) scale(0.005333,-0.005333)"
fill="#000000" stroke="none">
<path d="M647 2515 c-7 -20 0 -1361 7 -1405 43 -272 155 -436 371 -541 133
-65 278 -93 475 -93 235 1 403 43 550 139 118 77 193 169 244 298 57 144 58
161 60 907 1 377 1 690 -1 695 -2 7 -79 10 -216 9 -116 -1 -215 -2 -218 -3 -4
0 -7 -299 -8 -663 0 -365 -3 -676 -5 -693 -2 -16 -11 -57 -20 -90 -47 -165
-167 -232 -408 -227 -253 4 -380 131 -387 387 -2 44 -3 352 -4 685 l-2 605
-217 0 c-142 1 -219 -3 -221 -10z"/>
</g>
</svg>
